<svg width="109" height="22" viewBox="0 0 109 22" fill="none" xmlns="http://www.w3.org/2000/svg">
<path d="M1.52794 21.464C1.09139 21.464 0.727593 21.3185 0.436556 21.0274C0.145519 20.7364 0 20.3807 0 19.9603V1.50369C0 1.06714 0.145519 0.711424 0.436556 0.436556C0.727593 0.145519 1.09139 0 1.52794 0H5.02039C5.47311 0 5.82882 0.12935 6.08752 0.38805C6.34622 0.646749 6.47557 0.970123 6.47557 1.35817C6.47557 1.74622 6.34622 2.0696 6.08752 2.3283C5.82882 2.587 5.47311 2.71635 5.02039 2.71635H3.66222V18.7476H5.02039C5.47311 18.7476 5.82882 18.877 6.08752 19.1357C6.34622 19.3944 6.47557 19.7178 6.47557 20.1058C6.47557 20.4939 6.34622 20.8172 6.08752 21.0759C5.82882 21.3346 5.47311 21.464 5.02039 21.464H1.52794Z" fill="white"/>
<path d="M15.0415 17.3652C13.748 17.3652 12.6162 17.1146 11.646 16.6134C10.6921 16.096 9.9564 15.3684 9.439 14.4306C8.9216 13.4928 8.6629 12.3852 8.6629 11.1079C8.6629 10.154 8.80842 9.29702 9.09945 8.53709C9.39049 7.77716 9.81088 7.13041 10.3606 6.59684C10.9265 6.06327 11.6056 5.65905 12.3979 5.38419C13.1901 5.09315 14.0713 4.94763 15.0415 4.94763C15.5427 4.94763 16.0763 5.0123 16.6422 5.14165C17.2081 5.25484 17.7659 5.45694 18.3156 5.74798C18.639 5.8935 18.8573 6.10369 18.9705 6.37856C19.0998 6.63726 19.1483 6.91213 19.116 7.20317C19.0836 7.47803 18.9785 7.72865 18.8007 7.95501C18.639 8.16521 18.4288 8.31072 18.1701 8.39157C17.9114 8.45624 17.6204 8.40774 17.297 8.24605C16.9898 8.06819 16.6664 7.93884 16.3269 7.858C16.0035 7.77716 15.6963 7.73673 15.4053 7.73673C14.9202 7.73673 14.4917 7.81758 14.1198 7.97927C13.748 8.12478 13.4327 8.34306 13.174 8.6341C12.9314 8.90897 12.7374 9.25659 12.5919 9.67698C12.4625 10.0974 12.3979 10.5824 12.3979 11.1322C12.3979 12.1993 12.6566 13.0401 13.174 13.6545C13.7075 14.2527 14.4513 14.5519 15.4053 14.5519C15.6963 14.5519 16.0035 14.5195 16.3269 14.4548C16.6502 14.374 16.9736 14.2446 17.297 14.0668C17.6204 13.9051 17.9114 13.8647 18.1701 13.9455C18.4288 14.0264 18.6309 14.18 18.7764 14.4063C18.9381 14.6165 19.027 14.8671 19.0432 15.1582C19.0756 15.433 19.0271 15.7079 18.8977 15.9828C18.7845 16.2415 18.5743 16.4436 18.2671 16.5891C17.7174 16.864 17.1676 17.058 16.6179 17.1712C16.0682 17.3005 15.5427 17.3652 15.0415 17.3652Z" fill="white"/>
<path d="M27.7688 17.3652C26.4915 17.3652 25.3759 17.1146 24.4219 16.6134C23.4841 16.1121 22.7565 15.3926 22.2391 14.4548C21.7217 13.5171 21.463 12.4095 21.463 11.1322C21.463 10.1782 21.6086 9.32127 21.8996 8.56134C22.1906 7.80141 22.611 7.15466 23.1607 6.62109C23.7267 6.07136 24.3977 5.65905 25.1738 5.38419C25.9499 5.09315 26.8149 4.94763 27.7688 4.94763C29.0462 4.94763 30.1537 5.19824 31.0915 5.69948C32.0455 6.20071 32.7811 6.91213 33.2985 7.83375C33.8321 8.75536 34.0989 9.85484 34.0989 11.1322C34.0989 12.1023 33.9453 12.9673 33.6381 13.7272C33.347 14.4872 32.9267 15.142 32.3769 15.6917C31.8272 16.2415 31.1562 16.6619 30.3639 16.9529C29.5878 17.2278 28.7228 17.3652 27.7688 17.3652ZM27.7688 14.6246C28.3024 14.6246 28.7632 14.4953 29.1513 14.2366C29.5393 13.9779 29.8465 13.5979 30.0729 13.0967C30.2992 12.5793 30.4124 11.9244 30.4124 11.1322C30.4124 9.95185 30.1699 9.08682 29.6848 8.53709C29.1998 7.97118 28.5611 7.68823 27.7688 7.68823C27.2514 7.68823 26.7906 7.80949 26.3864 8.05202C25.9984 8.29456 25.6912 8.67452 25.4648 9.19192C25.2546 9.69315 25.1495 10.3399 25.1495 11.1322C25.1495 12.3125 25.392 13.1937 25.8771 13.7758C26.3622 14.3417 26.9927 14.6246 27.7688 14.6246Z" fill="white"/>
<path d="M39.6739 17.3167C39.0756 17.3167 38.6148 17.155 38.2915 16.8316C37.9842 16.5083 37.8306 16.0475 37.8306 15.4492V6.83937C37.8306 6.24113 37.9842 5.7884 38.2915 5.4812C38.6148 5.15782 39.0595 4.99614 39.6254 4.99614C40.2074 4.99614 40.6521 5.15782 40.9593 5.4812C41.2665 5.7884 41.4201 6.24113 41.4201 6.83937V8.39157L41.1533 7.42144C41.4767 6.67768 41.9779 6.07944 42.657 5.62672C43.3361 5.17399 44.1364 4.94763 45.0581 4.94763C45.9797 4.94763 46.7477 5.16591 47.3621 5.60246C47.9765 6.03902 48.4131 6.71002 48.6718 7.61547H48.3322C48.6879 6.79086 49.2296 6.14412 49.9572 5.67522C50.7009 5.19016 51.5498 4.94763 52.5038 4.94763C53.4254 4.94763 54.1772 5.13357 54.7593 5.50545C55.3575 5.86116 55.8022 6.4109 56.0932 7.15466C56.3843 7.88225 56.5298 8.81195 56.5298 9.94377V15.4492C56.5298 16.0475 56.3681 16.5083 56.0447 16.8316C55.7375 17.155 55.2929 17.3167 54.7108 17.3167C54.1125 17.3167 53.6517 17.155 53.3284 16.8316C53.0212 16.5083 52.8676 16.0475 52.8676 15.4492V10.065C52.8676 9.27276 52.7382 8.69877 52.4795 8.34306C52.237 7.97118 51.8166 7.78524 51.2183 7.78524C50.5231 7.78524 49.9814 8.02777 49.5934 8.51283C49.2053 8.9979 49.0113 9.68507 49.0113 10.5743V15.4492C49.0113 16.0475 48.8496 16.5083 48.5263 16.8316C48.219 17.155 47.7744 17.3167 47.1923 17.3167C46.6103 17.3167 46.1575 17.155 45.8342 16.8316C45.5108 16.5083 45.3491 16.0475 45.3491 15.4492V10.065C45.3491 9.27276 45.2197 8.69877 44.961 8.34306C44.7185 7.97118 44.2981 7.78524 43.6999 7.78524C43.0046 7.78524 42.463 8.02777 42.0749 8.51283C41.6869 8.9979 41.4929 9.68507 41.4929 10.5743V15.4492C41.4929 16.6942 40.8865 17.3167 39.6739 17.3167Z" fill="white"/>
<path d="M62.6336 21.6823C62.0353 21.6823 61.5745 21.5206 61.2512 21.1972C60.944 20.89 60.7904 20.4292 60.7904 19.8148V6.83937C60.7904 6.24113 60.944 5.7884 61.2512 5.4812C61.5745 5.15782 62.0192 4.99614 62.5851 4.99614C63.1833 4.99614 63.6361 5.15782 63.9433 5.4812C64.2505 5.7884 64.4041 6.24113 64.4041 6.83937V8.48858L64.1373 7.54271C64.3798 6.76661 64.8649 6.14412 65.5925 5.67522C66.3362 5.19016 67.1851 4.94763 68.139 4.94763C69.1738 4.94763 70.0793 5.19824 70.8554 5.69948C71.6477 6.20071 72.2621 6.91213 72.6986 7.83375C73.1352 8.75536 73.3535 9.85484 73.3535 11.1322C73.3535 12.4095 73.1352 13.5171 72.6986 14.4548C72.2621 15.3926 71.6557 16.1121 70.8796 16.6134C70.1035 17.1146 69.19 17.3652 68.139 17.3652C67.2013 17.3652 66.3686 17.1388 65.641 16.6861C64.9134 16.2172 64.4202 15.6109 64.1615 14.8671H64.4526V19.8148C64.4526 20.4292 64.2909 20.89 63.9675 21.1972C63.6603 21.5206 63.2157 21.6823 62.6336 21.6823ZM67.0477 14.6246C67.5651 14.6246 68.0178 14.4953 68.4058 14.2366C68.81 13.9779 69.1172 13.5979 69.3274 13.0967C69.5538 12.5793 69.667 11.9244 69.667 11.1322C69.667 9.95185 69.4245 9.08682 68.9394 8.53709C68.4543 7.97118 67.8238 7.68823 67.0477 7.68823C66.5303 7.68823 66.0694 7.80949 65.6652 8.05202C65.2772 8.29456 64.97 8.67452 64.7436 9.19192C64.5172 9.69315 64.4041 10.3399 64.4041 11.1322C64.4041 12.3125 64.6466 13.1937 65.1317 13.7758C65.6167 14.3417 66.2554 14.6246 67.0477 14.6246Z" fill="white"/>
<path d="M78.9402 17.3167C78.3258 17.3167 77.8569 17.155 77.5335 16.8316C77.2101 16.5083 77.0484 16.0475 77.0484 15.4492V6.83937C77.0484 6.24113 77.2021 5.7884 77.5093 5.4812C77.8326 5.15782 78.2773 4.99614 78.8432 4.99614C79.4253 4.99614 79.8699 5.15782 80.1771 5.4812C80.4843 5.7884 80.6379 6.24113 80.6379 6.83937V8.10053H80.3954C80.5894 7.13041 81.0179 6.37856 81.6808 5.84499C82.3437 5.31143 83.2006 5.0123 84.2516 4.94763C84.6558 4.91529 84.963 5.02039 85.1732 5.26292C85.3996 5.48928 85.5209 5.86925 85.537 6.40281C85.5694 6.90405 85.4643 7.30018 85.2217 7.59122C84.9954 7.88225 84.6073 8.06011 84.0576 8.12478L83.4998 8.17329C82.5782 8.25413 81.891 8.52092 81.4383 8.97364C81.0017 9.42637 80.7834 10.0812 80.7834 10.9381V15.4492C80.7834 16.0475 80.6217 16.5083 80.2984 16.8316C79.9912 17.155 79.5384 17.3167 78.9402 17.3167Z" fill="white"/>
<path d="M94.0091 17.3652C92.7318 17.3652 91.6162 17.1146 90.6622 16.6134C89.7244 16.1121 88.9968 15.3926 88.4794 14.4548C87.962 13.5171 87.7033 12.4095 87.7033 11.1322C87.7033 10.1782 87.8488 9.32127 88.1399 8.56134C88.4309 7.80141 88.8513 7.15466 89.401 6.62109C89.9669 6.07136 90.6379 5.65905 91.414 5.38419C92.1901 5.09315 93.0552 4.94763 94.0091 4.94763C95.2865 4.94763 96.394 5.19824 97.3318 5.69948C98.2857 6.20071 99.0214 6.91213 99.5388 7.83375C100.072 8.75536 100.339 9.85484 100.339 11.1322C100.339 12.1023 100.186 12.9673 99.8784 13.7272C99.5873 14.4872 99.1669 15.142 98.6172 15.6917C98.0675 16.2415 97.3965 16.6619 96.6042 16.9529C95.8281 17.2278 94.9631 17.3652 94.0091 17.3652ZM94.0091 14.6246C94.5427 14.6246 95.0035 14.4953 95.3915 14.2366C95.7796 13.9779 96.0868 13.5979 96.3132 13.0967C96.5395 12.5793 96.6527 11.9244 96.6527 11.1322C96.6527 9.95185 96.4102 9.08682 95.9251 8.53709C95.4401 7.97118 94.8014 7.68823 94.0091 7.68823C93.4917 7.68823 93.0309 7.80949 92.6267 8.05202C92.2386 8.29456 91.9314 8.67452 91.7051 9.19192C91.4949 9.69315 91.3898 10.3399 91.3898 11.1322C91.3898 12.3125 91.6323 13.1937 92.1174 13.7758C92.6024 14.3417 93.233 14.6246 94.0091 14.6246Z" fill="white"/>
<path d="M103.955 21.464C103.535 21.464 103.187 21.3346 102.912 21.0759C102.654 20.8172 102.524 20.4939 102.524 20.1058C102.524 19.7178 102.654 19.3944 102.912 19.1357C103.187 18.877 103.535 18.7476 103.955 18.7476H105.338V2.71635H103.955C103.535 2.71635 103.187 2.587 102.912 2.3283C102.654 2.0696 102.524 1.74622 102.524 1.35817C102.524 0.970123 102.654 0.646749 102.912 0.38805C103.187 0.12935 103.535 0 103.955 0H107.472C107.909 0 108.272 0.145519 108.563 0.436556C108.854 0.711424 109 1.06714 109 1.50369V19.9603C109 20.3807 108.854 20.7364 108.563 21.0274C108.272 21.3185 107.909 21.464 107.472 21.464H103.955Z" fill="white"/>
</svg>
